<svg width="100" height="100" viewBox="0 0 100 100" fill="none" xmlns="http://www.w3.org/2000/svg">
  <defs>
    <linearGradient id="logoGrad" x1="0%" y1="0%" x2="100%" y2="100%">
      <stop offset="0%" stop-color="#00D4AA" />
      <stop offset="50%" stop-color="#7C3AED" />
      <stop offset="100%" stop-color="#3B82F6" />
    </linearGradient>
  </defs>
  <!-- Main Hexagon -->
  <path d="M50 5 L89 27.5 V72.5 L50 95 L11 72.5 V27.5 L50 5Z" stroke="url(#logoGrad)" stroke-width="2" fill="none" />
  
  <!-- Circuit Patterns -->
  <path d="M25 35 L35 35 L40 30 M75 35 L65 35 L60 30 M25 65 L35 65 L40 70 M75 65 L65 65 L60 70" stroke="url(#logoGrad)" stroke-width="1" opacity="0.6" />
  <circle cx="40" cy="30" r="1.5" fill="url(#logoGrad)" />
  <circle cx="60" cy="30" r="1.5" fill="url(#logoGrad)" />
  <circle cx="40" cy="70" r="1.5" fill="url(#logoGrad)" />
  <circle cx="60" cy="70" r="1.5" fill="url(#logoGrad)" />
  
  <!-- Center Hexagon -->
  <path d="M50 30 L67.3 40 V60 L50 70 L32.7 60 V40 L50 30Z" fill="url(#logoGrad)" />
  <text x="50" y="56" text-anchor="middle" fill="white" font-family="Arial, sans-serif" font-weight="900" font-size="22">T</text>
</svg>
